# xmcd
#
# Track frame offsets:
#	150
#	22162
#	30410
#	49218
#	63484
#	80035
#	93717
#	104221
#	119714
#	128881
#	145376
#
# Disc length: 2155 seconds
#
# Revision: 1
# Processed by: cddbd v1.4PL0 Copyright (c) Steve Scherf et al.
# Submitted via: audiograbber 1.81.01
#
DISCID=ac08690b
DTITLE=Li'l Cap'n Travis - Li'l Cap'n Travis
DYEAR=1999
DGENRE=Alt-Country
TTITLE0=My Life in Amarillo
TTITLE1=Grandpa
TTITLE2=Ghost in the Window
TTITLE3=Sherri Lynn
TTITLE4=Little Drops of Summer
TTITLE5=America Beat 'Em All (to the Moon)
TTITLE6=Truck Driving School
TTITLE7=Rodeo Clown
TTITLE8=Trans Am and Tube Top
TTITLE9=Burn My Barn Down
TTITLE10=Flattened By the Good Times
EXTD=
EXTT0=
EXTT1=
EXTT2=
EXTT3=
EXTT4=
EXTT5=
EXTT6=
EXTT7=
EXTT8=
EXTT9=
EXTT10=
PLAYORDER=
